<?xml version="1.0" encoding="utf-8"?>
<!-- Generator: Adobe Illustrator 16.0.0, SVG Export Plug-In . SVG Version: 6.00 Build 0)  -->
<!DOCTYPE svg PUBLIC "-//W3C//DTD SVG 1.1//EN" "http://www.w3.org/Graphics/SVG/1.1/DTD/svg11.dtd">
<svg version="1.1" xmlns="http://www.w3.org/2000/svg" xmlns:xlink="http://www.w3.org/1999/xlink" x="0px" y="0px" width="100px"
	 height="100px" viewBox="0 0 100 100" enable-background="new 0 0 100 100" xml:space="preserve">
<g id="Layer_1" display="none">
	<g display="inline">
		<line fill="none" stroke="#231F20" stroke-width="2" stroke-miterlimit="10" x1="41.25" y1="10.917" x2="58.75" y2="10.917"/>
		<line fill="none" stroke="#231F20" stroke-width="2" stroke-miterlimit="10" x1="9.5" y1="86.417" x2="90.5" y2="86.417"/>
		<line fill="none" stroke="#231F20" stroke-width="2" stroke-miterlimit="10" x1="41.25" y1="93.042" x2="58.75" y2="93.042"/>
		<line fill="none" stroke="#231F20" stroke-width="2" stroke-miterlimit="10" x1="19.5" y1="43.792" x2="19.5" y2="86.417"/>
		<line fill="none" stroke="#231F20" stroke-width="2" stroke-miterlimit="10" x1="80.5" y1="43.792" x2="80.5" y2="86.417"/>
		<g>
			<path fill="none" stroke="#231F20" stroke-width="2" stroke-miterlimit="10" d="M19.514,44.154
				c2.958-37.575,58.016-37.575,60.973,0"/>
		</g>
	</g>
</g>
<g id="Layer_2" display="none">
	<g display="inline">
		<line fill="none" stroke="#231F20" stroke-width="2" stroke-miterlimit="10" x1="50" y1="5.998" x2="50" y2="94.331"/>
		<line fill="none" stroke="#231F20" stroke-width="2" stroke-miterlimit="10" x1="5.167" y1="51" x2="93.5" y2="51"/>
	</g>
</g>
<g id="Layer_3">
	<g>
		<line fill="none" stroke="#231F20" stroke-width="2" stroke-miterlimit="10" x1="5.167" y1="48.475" x2="34.977" y2="80.161"/>
		<line fill="none" stroke="#231F20" stroke-width="2" stroke-miterlimit="10" x1="34.398" y1="80.853" x2="95.061" y2="19.148"/>
	</g>
</g>
<g id="Layer_4" display="none">
	<g display="inline">
		<line fill="none" stroke="#231F20" stroke-width="2" stroke-miterlimit="10" x1="6.558" y1="42.799" x2="18.304" y2="55.285"/>
		<line fill="none" stroke="#231F20" stroke-width="2" stroke-miterlimit="10" x1="17.986" y1="55.623" x2="41.891" y2="31.309"/>
	</g>
	<g display="inline">
		<line fill="none" stroke="#231F20" stroke-width="2" stroke-miterlimit="10" x1="7.398" y1="74.484" x2="19.145" y2="86.97"/>
		<line fill="none" stroke="#231F20" stroke-width="2" stroke-miterlimit="10" x1="18.827" y1="87.308" x2="42.731" y2="62.993"/>
	</g>
</g>
</svg>
