<?xml version="1.0" encoding="utf-8"?>
<!-- Generator: Adobe Illustrator 16.0.0, SVG Export Plug-In . SVG Version: 6.00 Build 0)  -->
<!DOCTYPE svg PUBLIC "-//W3C//DTD SVG 1.1//EN" "http://www.w3.org/Graphics/SVG/1.1/DTD/svg11.dtd">
<svg version="1.1" xmlns="http://www.w3.org/2000/svg" xmlns:xlink="http://www.w3.org/1999/xlink" x="0px" y="0px" width="100px"
	 height="100px" viewBox="0 0 100 100" enable-background="new 0 0 100 100" xml:space="preserve">
<g id="Layer_1" display="none">
	<g display="inline">
		<line fill="none" stroke="#231F20" stroke-width="2" stroke-miterlimit="10" x1="41.25" y1="10.917" x2="58.75" y2="10.917"/>
		<line fill="none" stroke="#231F20" stroke-width="2" stroke-miterlimit="10" x1="9.5" y1="86.417" x2="90.5" y2="86.417"/>
		<line fill="none" stroke="#231F20" stroke-width="2" stroke-miterlimit="10" x1="41.25" y1="93.042" x2="58.75" y2="93.042"/>
		<line fill="none" stroke="#231F20" stroke-width="2" stroke-miterlimit="10" x1="19.5" y1="43.792" x2="19.5" y2="86.417"/>
		<line fill="none" stroke="#231F20" stroke-width="2" stroke-miterlimit="10" x1="80.5" y1="43.792" x2="80.5" y2="86.417"/>
		<g>
			<path fill="none" stroke="#231F20" stroke-width="2" stroke-miterlimit="10" d="M19.514,44.154
				c2.958-37.575,58.016-37.575,60.973,0"/>
		</g>
	</g>
</g>
<g id="Layer_2" display="none">
	<g display="inline">
		<line fill="none" stroke="#231F20" stroke-width="2" stroke-miterlimit="10" x1="50" y1="5.998" x2="50" y2="94.331"/>
		<line fill="none" stroke="#231F20" stroke-width="2" stroke-miterlimit="10" x1="5.167" y1="51" x2="93.5" y2="51"/>
	</g>
</g>
<g id="Layer_3">
	<g display="none">
		
			<line display="inline" fill="none" stroke="#231F20" stroke-width="2" stroke-miterlimit="10" x1="5.167" y1="48.475" x2="34.977" y2="80.161"/>
		
			<line display="inline" fill="none" stroke="#231F20" stroke-width="2" stroke-miterlimit="10" x1="34.398" y1="80.853" x2="95.061" y2="19.148"/>
	</g>
</g>
<g id="Layer_4">
	<g>
		<line fill="none" stroke="#231F20" stroke-width="2" stroke-miterlimit="10" x1="6.122" y1="70.209" x2="14.661" y2="79.284"/>
		<line fill="none" stroke="#231F20" stroke-width="2" stroke-miterlimit="10" x1="13.825" y1="79.367" x2="31.2" y2="61.695"/>
	</g>
	<g>
		<line fill="none" stroke="#231F20" stroke-width="2" stroke-miterlimit="10" x1="6.231" y1="30.973" x2="14.77" y2="40.048"/>
		<line fill="none" stroke="#231F20" stroke-width="2" stroke-miterlimit="10" x1="13.825" y1="39.96" x2="31.2" y2="22.287"/>
	</g>
	<line fill="none" stroke="#231F20" stroke-width="2" stroke-miterlimit="10" x1="31.2" y1="74.584" x2="92.667" y2="74.584"/>
	<line fill="none" stroke="#231F20" stroke-width="2" stroke-miterlimit="10" x1="31.2" y1="31.124" x2="92.667" y2="31.124"/>
</g>
</svg>
