<?xml version="1.0" encoding="utf-8"?>
<!-- Generator: Adobe Illustrator 16.0.0, SVG Export Plug-In . SVG Version: 6.00 Build 0)  -->
<!DOCTYPE svg PUBLIC "-//W3C//DTD SVG 1.1//EN" "http://www.w3.org/Graphics/SVG/1.1/DTD/svg11.dtd">
<svg version="1.1" xmlns="http://www.w3.org/2000/svg" xmlns:xlink="http://www.w3.org/1999/xlink" x="0px" y="0px" width="100px"
	 height="100px" viewBox="0 0 100 100" enable-background="new 0 0 100 100" xml:space="preserve">
<g id="Layer_1" display="none">
	<g display="inline">
		<line fill="none" stroke="#231F20" stroke-width="2" stroke-miterlimit="10" x1="41.25" y1="10.917" x2="58.75" y2="10.917"/>
		<line fill="none" stroke="#231F20" stroke-width="2" stroke-miterlimit="10" x1="9.5" y1="86.417" x2="90.5" y2="86.417"/>
		<line fill="none" stroke="#231F20" stroke-width="2" stroke-miterlimit="10" x1="41.25" y1="93.042" x2="58.75" y2="93.042"/>
		<line fill="none" stroke="#231F20" stroke-width="2" stroke-miterlimit="10" x1="19.5" y1="43.792" x2="19.5" y2="86.417"/>
		<line fill="none" stroke="#231F20" stroke-width="2" stroke-miterlimit="10" x1="80.5" y1="43.792" x2="80.5" y2="86.417"/>
		<g>
			<path fill="none" stroke="#231F20" stroke-width="2" stroke-miterlimit="10" d="M19.514,44.154
				c2.958-37.575,58.016-37.575,60.973,0"/>
		</g>
	</g>
</g>
<g id="Layer_2" display="none">
	<g display="inline">
		<line fill="none" stroke="#231F20" stroke-width="2" stroke-miterlimit="10" x1="50" y1="5.998" x2="50" y2="94.331"/>
		<line fill="none" stroke="#231F20" stroke-width="2" stroke-miterlimit="10" x1="5.167" y1="51" x2="93.5" y2="51"/>
	</g>
</g>
<g id="Layer_3" display="none">
	<g display="inline">
		<line fill="none" stroke="#231F20" stroke-width="2" stroke-miterlimit="10" x1="5.167" y1="48.475" x2="34.977" y2="80.161"/>
		<line fill="none" stroke="#231F20" stroke-width="2" stroke-miterlimit="10" x1="34.398" y1="80.853" x2="95.061" y2="19.148"/>
	</g>
</g>
<g id="Layer_4" display="none">
	<g display="inline">
		<line fill="none" stroke="#231F20" stroke-width="2" stroke-miterlimit="10" x1="6.122" y1="70.209" x2="14.661" y2="79.284"/>
		<line fill="none" stroke="#231F20" stroke-width="2" stroke-miterlimit="10" x1="13.825" y1="79.367" x2="31.2" y2="61.695"/>
	</g>
	<g display="inline">
		<line fill="none" stroke="#231F20" stroke-width="2" stroke-miterlimit="10" x1="6.231" y1="30.973" x2="14.77" y2="40.048"/>
		<line fill="none" stroke="#231F20" stroke-width="2" stroke-miterlimit="10" x1="13.825" y1="39.96" x2="31.2" y2="22.287"/>
	</g>
	
		<line display="inline" fill="none" stroke="#231F20" stroke-width="2" stroke-miterlimit="10" x1="31.2" y1="74.584" x2="92.667" y2="74.584"/>
	
		<line display="inline" fill="none" stroke="#231F20" stroke-width="2" stroke-miterlimit="10" x1="31.2" y1="31.124" x2="92.667" y2="31.124"/>
</g>
<g id="Layer_5" display="none">
	
		<line display="inline" fill="none" stroke="#231F20" stroke-width="2" stroke-miterlimit="10" x1="8.501" y1="50.578" x2="91.834" y2="50.578"/>
	
		<line display="inline" fill="none" stroke="#231F20" stroke-width="2" stroke-miterlimit="10" x1="7.282" y1="51.082" x2="40.179" y2="23.382"/>
	
		<line display="inline" fill="none" stroke="#231F20" stroke-width="2" stroke-miterlimit="10" x1="7.282" y1="50" x2="41.703" y2="79.113"/>
</g>
<g id="Layer_6">
	<g>
		<g>
			<g>
				<g>
					<path fill="#231F20" d="M49.45,10.813c-15.74,0-32.875,15.125-28.5,39.125c3.875,21.258,28.5,39.125,28.5,39.125
						s23.377-18.133,28.5-39.125C83.075,28.938,65.19,10.813,49.45,10.813z M49.55,58.813c-8.215,0-14.875-6.66-14.875-14.875
						c0-8.215,6.66-14.875,14.875-14.875c8.214,0,14.875,6.66,14.875,14.875C64.425,52.152,57.765,58.813,49.55,58.813z"/>
				</g>
				<g>
					<path fill="none" stroke="#231F20" stroke-width="2" stroke-miterlimit="10" d="M49.45,10.813
						c-15.74,0-32.875,15.125-28.5,39.125c3.875,21.258,28.5,39.125,28.5,39.125s23.377-18.133,28.5-39.125
						C83.075,28.938,65.19,10.813,49.45,10.813z M49.55,58.813c-8.215,0-14.875-6.66-14.875-14.875
						c0-8.215,6.66-14.875,14.875-14.875c8.214,0,14.875,6.66,14.875,14.875C64.425,52.152,57.765,58.813,49.55,58.813z"/>
				</g>
			</g>
		</g>
	</g>
</g>
</svg>
